<?xml version="1.0" encoding="UTF-8"?>
<svg xmlns="http://www.w3.org/2000/svg" xmlns:xlink="http://www.w3.org/1999/xlink" width="500px" height="368px" viewBox="0 0 499 368" version="1.1">
<defs>
<filter id="alpha" filterUnits="objectBoundingBox" x="0%" y="0%" width="100%" height="100%">
  <feColorMatrix type="matrix" in="SourceGraphic" values="0 0 0 0 1 0 0 0 0 1 0 0 0 0 1 0 0 0 1 0"/>
</filter>
<mask id="mask0">
  <g filter="url(#alpha)">
<rect x="0" y="0" width="499" height="368" style="fill:rgb(0%,0%,0%);fill-opacity:0.101961;stroke:none;"/>
  </g>
</mask>
<clipPath id="clip1">
  <rect x="0" y="0" width="499" height="368"/>
</clipPath>
<g id="surface5" clip-path="url(#clip1)">
<path style=" stroke:none;fill-rule:nonzero;fill:rgb(99.607843%,46.666667%,60.784314%);fill-opacity:1;" d="M 5.390625 195.820312 C 13.285156 229.613281 30.003906 258.824219 56.421875 272.984375 C 111.328125 302.410156 235.148438 287.234375 327.5625 269.796875 C 374.257812 261.015625 416.644531 236.753906 447.894531 200.917969 Z M 5.390625 195.820312 "/>
</g>
<mask id="mask1">
  <g filter="url(#alpha)">
<rect x="0" y="0" width="499" height="368" style="fill:rgb(0%,0%,0%);fill-opacity:0.101961;stroke:none;"/>
  </g>
</mask>
<clipPath id="clip2">
  <rect x="0" y="0" width="499" height="368"/>
</clipPath>
<g id="surface8" clip-path="url(#clip2)">
<path style=" stroke:none;fill-rule:nonzero;fill:rgb(99.607843%,46.666667%,60.784314%);fill-opacity:1;" d="M 489.992188 36.757812 L 439.289062 36.757812 C 436.867188 36.757812 434.90625 34.792969 434.90625 32.371094 C 434.90625 29.945312 436.867188 27.984375 439.289062 27.984375 L 448.054688 27.984375 C 445.632812 27.984375 443.671875 26.019531 443.671875 23.59375 C 443.671875 21.171875 445.632812 19.207031 448.054688 19.207031 L 441.792969 19.207031 C 439.375 19.207031 437.410156 17.242188 437.410156 14.816406 C 437.410156 12.394531 439.375 10.429688 441.792969 10.429688 L 468.257812 10.429688 C 462.386719 7.695312 455.523438 5.753906 447.617188 4.730469 C 375.457031 -4.550781 349.691406 1.589844 340.601562 7.921875 C 329.390625 15.707031 316.882812 21.4375 303.511719 24.199219 C 258.988281 33.394531 175.722656 44.460938 100.253906 20.65625 C 62.746094 8.8125 34.867188 28.816406 18.160156 62.226562 L 498.796875 62.226562 C 498.167969 52.515625 496.289062 43.554688 492.839844 35.703125 C 492.050781 36.386719 491.039062 36.761719 489.992188 36.757812 Z M 489.992188 36.757812 "/>
</g>
<mask id="mask2">
  <g filter="url(#alpha)">
<rect x="0" y="0" width="499" height="368" style="fill:rgb(0%,0%,0%);fill-opacity:0.101961;stroke:none;"/>
  </g>
</mask>
<clipPath id="clip3">
  <rect x="0" y="0" width="499" height="368"/>
</clipPath>
<g id="surface11" clip-path="url(#clip3)">
<path style=" stroke:none;fill-rule:nonzero;fill:rgb(99.607843%,46.666667%,60.784314%);fill-opacity:1;" d="M 1.085938 125.292969 C -0.859375 144.945312 -0.199219 164.769531 3.050781 184.25 L 448.230469 200.550781 C 460.625 186.277344 471.027344 170.390625 479.164062 153.320312 Z M 177.160156 167.351562 L 168.394531 167.351562 C 170.816406 167.351562 172.777344 169.316406 172.777344 171.742188 C 172.777344 174.164062 170.816406 176.128906 168.394531 176.128906 L 117.691406 176.128906 C 115.269531 176.128906 113.308594 174.164062 113.308594 171.742188 C 113.308594 169.316406 115.269531 167.351562 117.691406 167.351562 L 126.457031 167.351562 C 124.035156 167.351562 122.074219 165.390625 122.074219 162.964844 C 122.074219 160.542969 124.035156 158.578125 126.457031 158.578125 L 120.195312 158.578125 C 117.777344 158.578125 115.8125 156.613281 115.8125 154.1875 C 115.8125 151.765625 117.777344 149.800781 120.195312 149.800781 L 170.902344 149.800781 C 173.324219 149.800781 175.285156 151.765625 175.285156 154.1875 C 175.285156 156.613281 173.324219 158.578125 170.902344 158.578125 L 177.160156 158.578125 C 179.582031 158.578125 181.542969 160.542969 181.542969 162.964844 C 181.542969 165.390625 179.582031 167.351562 177.160156 167.351562 Z M 177.160156 167.351562 "/>
</g>
<mask id="mask3">
  <g filter="url(#alpha)">
<rect x="0" y="0" width="499" height="368" style="fill:rgb(0%,0%,0%);fill-opacity:0.101961;stroke:none;"/>
  </g>
</mask>
<clipPath id="clip4">
  <rect x="0" y="0" width="499" height="368"/>
</clipPath>
<g id="surface14" clip-path="url(#clip4)">
<path style=" stroke:none;fill-rule:nonzero;fill:rgb(99.607843%,46.666667%,60.784314%);fill-opacity:1;" d="M 498.816406 62.527344 L 12.785156 74.371094 C 6.878906 89.582031 2.980469 106.785156 1.160156 124.617188 L 490.304688 124.617188 C 493.496094 114.144531 495.859375 103.433594 497.367188 92.585938 C 498.824219 82.101562 499.40625 71.96875 498.816406 62.527344 Z M 99.832031 101.3125 L 91.066406 101.3125 C 93.488281 101.3125 95.449219 103.277344 95.449219 105.703125 C 95.449219 108.125 93.488281 110.089844 91.066406 110.089844 L 40.359375 110.089844 C 37.941406 110.089844 35.976562 108.125 35.976562 105.703125 C 35.976562 103.277344 37.941406 101.3125 40.359375 101.3125 L 49.125 101.3125 C 46.707031 101.3125 44.742188 99.347656 44.742188 96.925781 C 44.742188 94.503906 46.707031 92.539062 49.125 92.539062 L 42.867188 92.539062 C 40.445312 92.539062 38.484375 90.574219 38.484375 88.148438 C 38.484375 85.726562 40.445312 83.761719 42.867188 83.761719 L 93.574219 83.761719 C 95.992188 83.761719 97.957031 85.726562 97.957031 88.148438 C 97.957031 90.574219 95.992188 92.539062 93.574219 92.539062 L 99.832031 92.539062 C 102.253906 92.539062 104.214844 94.503906 104.214844 96.925781 C 104.214844 99.347656 102.253906 101.3125 99.832031 101.3125 Z M 99.832031 101.3125 "/>
</g>
<mask id="mask4">
  <g filter="url(#alpha)">
<rect x="0" y="0" width="499" height="368" style="fill:rgb(0%,0%,0%);fill-opacity:0.101961;stroke:none;"/>
  </g>
</mask>
<mask id="mask5">
  <g filter="url(#alpha)">
<rect x="0" y="0" width="499" height="368" style="fill:rgb(0%,0%,0%);fill-opacity:0.25098;stroke:none;"/>
  </g>
</mask>
<clipPath id="clip6">
  <rect x="0" y="0" width="499" height="368"/>
</clipPath>
<g id="surface18" clip-path="url(#clip6)">
<path style=" stroke:none;fill-rule:nonzero;fill:rgb(0%,0%,0%);fill-opacity:1;" d="M 389.394531 195.386719 C 386.894531 198.527344 373.972656 203.128906 373.972656 203.128906 C 373.972656 203.128906 375.527344 189.464844 378.027344 186.34375 C 380.597656 183.480469 384.953125 183.117188 387.964844 185.515625 C 390.976562 187.914062 391.605469 192.246094 389.398438 195.398438 Z M 389.394531 195.386719 "/>
</g>
<mask id="mask6">
  <g filter="url(#alpha)">
<rect x="0" y="0" width="499" height="368" style="fill:rgb(0%,0%,0%);fill-opacity:0.25098;stroke:none;"/>
  </g>
</mask>
<clipPath id="clip7">
  <rect x="0" y="0" width="499" height="368"/>
</clipPath>
<g id="surface21" clip-path="url(#clip7)">
<path style=" stroke:none;fill-rule:nonzero;fill:rgb(0%,0%,0%);fill-opacity:1;" d="M 384.957031 220.28125 C 381.15625 221.5625 367.816406 218.378906 367.816406 218.378906 C 367.816406 218.378906 376.527344 207.773438 380.332031 206.496094 C 384.039062 205.507812 387.875 207.574219 389.097656 211.21875 C 390.320312 214.859375 388.507812 218.824219 384.957031 220.28125 Z M 384.957031 220.28125 "/>
</g>
<mask id="mask7">
  <g filter="url(#alpha)">
<rect x="0" y="0" width="499" height="368" style="fill:rgb(0%,0%,0%);fill-opacity:0.25098;stroke:none;"/>
  </g>
</mask>
<clipPath id="clip8">
  <rect x="0" y="0" width="499" height="368"/>
</clipPath>
<g id="surface24" clip-path="url(#clip8)">
<path style=" stroke:none;fill-rule:nonzero;fill:rgb(0%,0%,0%);fill-opacity:1;" d="M 360.914062 249.703125 C 356.988281 248.886719 347.074219 239.394531 347.074219 239.394531 C 347.074219 239.394531 359.941406 234.644531 363.871094 235.460938 C 367.558594 236.492188 369.820312 240.207031 369.042969 243.964844 C 368.261719 247.71875 364.707031 250.226562 360.914062 249.699219 Z M 360.914062 249.703125 "/>
</g>
<mask id="mask8">
  <g filter="url(#alpha)">
<rect x="0" y="0" width="499" height="368" style="fill:rgb(0%,0%,0%);fill-opacity:0.25098;stroke:none;"/>
  </g>
</mask>
<clipPath id="clip9">
  <rect x="0" y="0" width="499" height="368"/>
</clipPath>
<g id="surface27" clip-path="url(#clip9)">
<path style=" stroke:none;fill-rule:nonzero;fill:rgb(0%,0%,0%);fill-opacity:1;" d="M 337.714844 267.867188 C 333.707031 267.722656 322.335938 260.050781 322.335938 260.050781 C 322.335938 260.050781 334.214844 253.203125 338.222656 253.332031 C 340.9375 253.246094 343.472656 254.683594 344.800781 257.054688 C 346.128906 259.425781 346.027344 262.339844 344.535156 264.613281 C 343.046875 266.886719 340.414062 268.140625 337.714844 267.867188 Z M 337.714844 267.867188 "/>
</g>
<mask id="mask9">
  <g filter="url(#alpha)">
<rect x="0" y="0" width="499" height="368" style="fill:rgb(0%,0%,0%);fill-opacity:0.25098;stroke:none;"/>
  </g>
</mask>
<clipPath id="clip10">
  <rect x="0" y="0" width="499" height="368"/>
</clipPath>
<g id="surface30" clip-path="url(#clip10)">
<path style=" stroke:none;fill-rule:nonzero;fill:rgb(0%,0%,0%);fill-opacity:1;" d="M 355.398438 209.480469 C 355.914062 213.46875 364.597656 224.089844 364.597656 224.089844 C 364.597656 224.089844 370.316406 211.609375 369.804688 207.625 C 369.070312 203.855469 365.539062 201.308594 361.734375 201.796875 C 357.929688 202.289062 355.160156 205.648438 355.398438 209.480469 Z M 355.398438 209.480469 "/>
</g>
<mask id="mask10">
  <g filter="url(#alpha)">
<rect x="0" y="0" width="499" height="368" style="fill:rgb(0%,0%,0%);fill-opacity:0.25098;stroke:none;"/>
  </g>
</mask>
<clipPath id="clip11">
  <rect x="0" y="0" width="499" height="368"/>
</clipPath>
<g id="surface33" clip-path="url(#clip11)">
<path style=" stroke:none;fill-rule:nonzero;fill:rgb(0%,0%,0%);fill-opacity:1;" d="M 328.535156 231.066406 C 330.214844 234.710938 341.675781 242.246094 341.675781 242.246094 C 341.675781 242.246094 343.40625 228.625 341.726562 224.980469 C 340.75 222.445312 338.449219 220.664062 335.753906 220.359375 C 333.0625 220.050781 330.417969 221.273438 328.902344 223.523438 C 327.382812 225.773438 327.242188 228.683594 328.535156 231.070312 Z M 328.535156 231.066406 "/>
</g>
<mask id="mask11">
  <g filter="url(#alpha)">
<rect x="0" y="0" width="499" height="368" style="fill:rgb(0%,0%,0%);fill-opacity:0.25098;stroke:none;"/>
  </g>
</mask>
<clipPath id="clip12">
  <rect x="0" y="0" width="499" height="368"/>
</clipPath>
<g id="surface36" clip-path="url(#clip12)">
<path style=" stroke:none;fill-rule:nonzero;fill:rgb(0%,0%,0%);fill-opacity:1;" d="M 305.300781 255.632812 C 306.335938 259.511719 316.367188 268.875 316.367188 268.875 C 316.367188 268.875 320.371094 255.746094 319.328125 251.867188 C 318.09375 248.234375 314.253906 246.183594 310.554688 247.175781 C 306.851562 248.171875 304.554688 251.867188 305.300781 255.632812 Z M 305.300781 255.632812 "/>
</g>
<clipPath id="clip5">
  <rect x="0" y="0" width="499" height="368"/>
</clipPath>
<g id="surface38" clip-path="url(#clip5)">
<path style="fill:none;stroke-width:2;stroke-linecap:butt;stroke-linejoin:miter;stroke:rgb(32.54902%,32.941176%,38.039216%);stroke-opacity:1;stroke-miterlimit:10;" d="M 729.002762 669.332184 C 729.002762 669.332184 757.204071 599.82607 809.862544 574.052887 C 832.026849 563.391967 850.13786 545.826749 861.473344 523.998879 C 866.763236 513.586685 871.09133 502.702768 874.397512 491.501512 " transform="matrix(0.454877,0,0,0.455446,-23.403418,-20.973267)"/>
<path style=" stroke:none;fill-rule:nonzero;fill:rgb(99.607843%,46.666667%,60.784314%);fill-opacity:1;" d="M 389.394531 195.386719 C 386.894531 198.527344 373.972656 203.128906 373.972656 203.128906 C 373.972656 203.128906 375.527344 189.464844 378.027344 186.34375 C 380.597656 183.480469 384.953125 183.117188 387.964844 185.515625 C 390.976562 187.914062 391.605469 192.246094 389.398438 195.398438 Z M 389.394531 195.386719 "/>
<path style=" stroke:none;fill-rule:nonzero;fill:rgb(99.607843%,46.666667%,60.784314%);fill-opacity:1;" d="M 384.957031 220.28125 C 381.15625 221.5625 367.816406 218.378906 367.816406 218.378906 C 367.816406 218.378906 376.527344 207.773438 380.332031 206.496094 C 384.039062 205.507812 387.875 207.574219 389.097656 211.21875 C 390.320312 214.859375 388.507812 218.824219 384.957031 220.28125 Z M 384.957031 220.28125 "/>
<path style=" stroke:none;fill-rule:nonzero;fill:rgb(99.607843%,46.666667%,60.784314%);fill-opacity:1;" d="M 360.914062 249.703125 C 356.988281 248.886719 347.074219 239.394531 347.074219 239.394531 C 347.074219 239.394531 359.941406 234.644531 363.871094 235.460938 C 367.558594 236.492188 369.820312 240.207031 369.042969 243.964844 C 368.261719 247.71875 364.707031 250.226562 360.914062 249.699219 Z M 360.914062 249.703125 "/>
<path style=" stroke:none;fill-rule:nonzero;fill:rgb(99.607843%,46.666667%,60.784314%);fill-opacity:1;" d="M 337.714844 267.867188 C 333.707031 267.722656 322.335938 260.050781 322.335938 260.050781 C 322.335938 260.050781 334.214844 253.203125 338.222656 253.332031 C 340.9375 253.246094 343.472656 254.683594 344.800781 257.054688 C 346.128906 259.425781 346.027344 262.339844 344.535156 264.613281 C 343.046875 266.886719 340.414062 268.140625 337.714844 267.867188 Z M 337.714844 267.867188 "/>
<path style=" stroke:none;fill-rule:nonzero;fill:rgb(99.607843%,46.666667%,60.784314%);fill-opacity:1;" d="M 355.398438 209.480469 C 355.914062 213.46875 364.597656 224.089844 364.597656 224.089844 C 364.597656 224.089844 370.316406 211.609375 369.804688 207.625 C 369.070312 203.855469 365.539062 201.308594 361.734375 201.796875 C 357.929688 202.289062 355.160156 205.648438 355.398438 209.480469 Z M 355.398438 209.480469 "/>
<path style=" stroke:none;fill-rule:nonzero;fill:rgb(99.607843%,46.666667%,60.784314%);fill-opacity:1;" d="M 328.535156 231.066406 C 330.214844 234.710938 341.675781 242.246094 341.675781 242.246094 C 341.675781 242.246094 343.40625 228.625 341.726562 224.980469 C 340.75 222.445312 338.449219 220.664062 335.753906 220.359375 C 333.0625 220.050781 330.417969 221.273438 328.902344 223.523438 C 327.382812 225.773438 327.242188 228.683594 328.535156 231.070312 Z M 328.535156 231.066406 "/>
<path style=" stroke:none;fill-rule:nonzero;fill:rgb(99.607843%,46.666667%,60.784314%);fill-opacity:1;" d="M 305.300781 255.632812 C 306.335938 259.511719 316.367188 268.875 316.367188 268.875 C 316.367188 268.875 320.371094 255.746094 319.328125 251.867188 C 318.09375 248.234375 314.253906 246.183594 310.554688 247.175781 C 306.851562 248.171875 304.554688 251.867188 305.300781 255.632812 Z M 305.300781 255.632812 "/>
<use xlink:href="#surface18" mask="url(#mask5)"/>
<use xlink:href="#surface21" mask="url(#mask6)"/>
<use xlink:href="#surface24" mask="url(#mask7)"/>
<use xlink:href="#surface27" mask="url(#mask8)"/>
<use xlink:href="#surface30" mask="url(#mask9)"/>
<use xlink:href="#surface33" mask="url(#mask10)"/>
<use xlink:href="#surface36" mask="url(#mask11)"/>
</g>
<mask id="mask12">
  <g filter="url(#alpha)">
<rect x="0" y="0" width="499" height="368" style="fill:rgb(0%,0%,0%);fill-opacity:0.101961;stroke:none;"/>
  </g>
</mask>
<clipPath id="clip13">
  <rect x="0" y="0" width="499" height="368"/>
</clipPath>
<g id="surface41" clip-path="url(#clip13)">
<path style="fill:none;stroke-width:2;stroke-linecap:butt;stroke-linejoin:miter;stroke:rgb(32.54902%,32.941176%,38.039216%);stroke-opacity:1;stroke-miterlimit:10;" d="M 709.002503 567.70608 C 709.002503 567.70608 712.557723 492.788026 753.691788 451.002021 C 771.038513 433.574032 782.262359 410.999983 785.688767 386.650543 C 787.234514 375.080486 787.706826 363.390353 787.122877 351.725951 " transform="matrix(0.454877,0,0,0.455446,-23.403418,-20.973267)"/>
<path style=" stroke:none;fill-rule:nonzero;fill:rgb(99.607843%,46.666667%,60.784314%);fill-opacity:1;" d="M 346.410156 127.15625 C 345.097656 130.949219 334.425781 139.570312 334.425781 139.570312 C 334.425781 139.570312 331.378906 126.1875 332.691406 122.390625 C 333.402344 119.761719 335.519531 117.75 338.179688 117.171875 C 340.839844 116.597656 343.597656 117.554688 345.332031 119.65625 C 347.0625 121.757812 347.480469 124.648438 346.410156 127.15625 Z M 346.410156 127.15625 "/>
<path style=" stroke:none;fill-rule:nonzero;fill:rgb(99.607843%,46.666667%,60.784314%);fill-opacity:1;" d="M 350.449219 152.097656 C 347.265625 154.566406 333.648438 155.996094 333.648438 155.996094 C 333.648438 155.996094 338.355469 143.097656 341.515625 140.628906 C 343.542969 138.824219 346.40625 138.296875 348.941406 139.261719 C 351.476562 140.226562 353.261719 142.523438 353.582031 145.21875 C 353.898438 147.917969 352.691406 150.566406 350.449219 152.097656 Z M 350.449219 152.097656 "/>
<path style=" stroke:none;fill-rule:nonzero;fill:rgb(99.607843%,46.666667%,60.784314%);fill-opacity:1;" d="M 337.507812 187.859375 C 333.535156 188.390625 321.042969 182.730469 321.042969 182.730469 C 321.042969 182.730469 331.609375 173.976562 335.597656 173.441406 C 338.257812 172.910156 340.996094 173.898438 342.699219 176.015625 C 344.398438 178.128906 344.785156 181.015625 343.699219 183.503906 C 342.613281 185.996094 340.234375 187.671875 337.527344 187.859375 Z M 337.507812 187.859375 "/>
<path style=" stroke:none;fill-rule:nonzero;fill:rgb(99.607843%,46.666667%,60.784314%);fill-opacity:1;" d="M 321.640625 212.691406 C 317.808594 213.890625 304.539062 210.414062 304.539062 210.414062 C 304.539062 210.414062 313.472656 200 317.304688 198.800781 C 321.035156 197.890625 324.828125 200.039062 325.976562 203.707031 C 327.121094 207.375 325.222656 211.304688 321.640625 212.683594 Z M 321.640625 212.691406 "/>
<path style=" stroke:none;fill-rule:nonzero;fill:rgb(99.607843%,46.666667%,60.784314%);fill-opacity:1;" d="M 318.988281 151.742188 C 320.804688 155.328125 332.507812 162.464844 332.507812 162.464844 C 332.507812 162.464844 333.765625 148.804688 331.964844 145.207031 C 330.023438 141.886719 325.84375 140.648438 322.414062 142.375 C 318.980469 144.101562 317.480469 148.203125 318.988281 151.742188 Z M 318.988281 151.742188 "/>
<path style=" stroke:none;fill-rule:nonzero;fill:rgb(99.607843%,46.666667%,60.784314%);fill-opacity:1;" d="M 300.792969 181.027344 C 303.585938 183.910156 316.894531 187.210938 316.894531 187.210938 C 316.894531 187.210938 314.015625 173.789062 311.222656 170.90625 C 308.378906 168.316406 304.019531 168.386719 301.257812 171.066406 C 298.5 173.742188 298.296875 178.105469 300.792969 181.03125 Z M 300.792969 181.027344 "/>
<path style=" stroke:none;fill-rule:nonzero;fill:rgb(99.607843%,46.666667%,60.784314%);fill-opacity:1;" d="M 287.007812 211.914062 C 289.285156 215.230469 301.839844 220.734375 301.839844 220.734375 C 301.839844 220.734375 301.265625 207.019531 299 203.703125 C 296.621094 200.722656 292.351562 200.082031 289.207031 202.234375 C 286.0625 204.382812 285.105469 208.601562 287.015625 211.902344 Z M 287.007812 211.914062 "/>
</g>
<mask id="mask13">
  <g filter="url(#alpha)">
<rect x="0" y="0" width="499" height="368" style="fill:rgb(0%,0%,0%);fill-opacity:0.101961;stroke:none;"/>
  </g>
</mask>
<clipPath id="clip14">
  <rect x="0" y="0" width="499" height="368"/>
</clipPath>
<g id="surface44" clip-path="url(#clip14)">
<path style=" stroke:none;fill-rule:nonzero;fill:rgb(99.607843%,46.666667%,60.784314%);fill-opacity:1;" d="M 136.34375 353.316406 C 154.230469 359.335938 176.050781 355.675781 196.34375 356.097656 C 199.121094 356.160156 202.0625 356.332031 204.289062 357.371094 C 206.519531 358.410156 207.613281 360.101562 209.144531 361.539062 C 214.828125 366.90625 226.480469 368.632812 236.664062 367.722656 C 246.847656 366.8125 256.1875 363.796875 265.777344 361.5 C 282.386719 357.53125 301.378906 355.726562 317.761719 360.050781 C 319.269531 360.449219 320.851562 360.902344 322.460938 360.75 C 326.054688 360.394531 327.125 357.515625 329.636719 355.871094 C 334.183594 352.902344 344.023438 353.707031 346.011719 349.796875 C 347.179688 347.519531 344.492188 345.148438 341.566406 343.582031 C 330.367188 337.589844 314.347656 336.601562 299.691406 337.527344 C 285.035156 338.449219 270.625 341 255.890625 341.011719 C 237.535156 341.011719 219.800781 337.097656 201.625 335.496094 C 189.035156 334.382812 175.292969 334.519531 163.488281 337.773438 C 150.726562 341.332031 147.90625 349.277344 136.34375 353.316406 Z M 136.34375 353.316406 "/>
</g>
</defs>
<g id="surface1">
<use xlink:href="#surface5" mask="url(#mask0)"/>
<use xlink:href="#surface8" mask="url(#mask1)"/>
<use xlink:href="#surface11" mask="url(#mask2)"/>
<use xlink:href="#surface14" mask="url(#mask3)"/>
<use xlink:href="#surface38" mask="url(#mask4)"/>
<use xlink:href="#surface41" mask="url(#mask12)"/>
<use xlink:href="#surface44" mask="url(#mask13)"/>
<path style=" stroke:none;fill-rule:nonzero;fill:rgb(32.54902%,32.941176%,38.039216%);fill-opacity:1;" d="M 166.261719 84.210938 L 169.445312 84.210938 L 169.445312 129.300781 L 166.261719 129.300781 Z M 166.261719 84.210938 "/>
<path style=" stroke:none;fill-rule:nonzero;fill:rgb(32.54902%,32.941176%,38.039216%);fill-opacity:1;" d="M 166.261719 144.785156 L 169.445312 144.785156 L 169.445312 170.292969 L 166.261719 170.292969 Z M 166.261719 144.785156 "/>
<path style=" stroke:none;fill-rule:nonzero;fill:rgb(32.54902%,32.941176%,38.039216%);fill-opacity:1;" d="M 189.960938 40.035156 L 290.398438 40.035156 C 302.230469 40.035156 311.824219 49.636719 311.824219 61.484375 L 311.824219 330.105469 C 311.824219 341.953125 302.230469 351.558594 290.398438 351.558594 L 189.960938 351.558594 C 178.128906 351.558594 168.535156 341.953125 168.535156 330.105469 L 168.535156 61.484375 C 168.535156 49.636719 178.128906 40.035156 189.960938 40.035156 Z M 189.960938 40.035156 "/>
<path style=" stroke:none;fill-rule:nonzero;fill:rgb(99.607843%,46.666667%,60.784314%);fill-opacity:1;" d="M 189.960938 54.609375 L 290.398438 54.609375 C 302.230469 54.609375 311.824219 64.210938 311.824219 76.058594 L 311.824219 316.898438 C 311.824219 328.746094 302.230469 338.351562 290.398438 338.351562 L 189.960938 338.351562 C 178.128906 338.351562 168.535156 328.746094 168.535156 316.898438 L 168.535156 76.058594 C 168.535156 64.210938 178.128906 54.609375 189.960938 54.609375 Z M 189.960938 54.609375 "/>
<path style=" stroke:none;fill-rule:nonzero;fill:rgb(91.764706%,91.764706%,95.294118%);fill-opacity:1;" d="M 230.171875 46.867188 L 250.640625 46.867188 C 251.519531 46.867188 252.234375 47.578125 252.234375 48.460938 C 252.234375 49.339844 251.519531 50.054688 250.640625 50.054688 L 230.171875 50.054688 C 229.292969 50.054688 228.582031 49.339844 228.582031 48.460938 C 228.582031 47.578125 229.292969 46.867188 230.171875 46.867188 Z M 230.171875 46.867188 "/>
<path style=" stroke:none;fill-rule:nonzero;fill:rgb(91.764706%,91.764706%,95.294118%);fill-opacity:1;" d="M 262.695312 48.6875 C 262.695312 49.945312 261.675781 50.964844 260.421875 50.964844 C 259.164062 50.964844 258.148438 49.945312 258.148438 48.6875 C 258.148438 47.429688 259.164062 46.410156 260.421875 46.410156 C 261.675781 46.410156 262.695312 47.429688 262.695312 48.6875 Z M 262.695312 48.6875 "/>
<path style=" stroke:none;fill-rule:nonzero;fill:rgb(100%,100%,100%);fill-opacity:1;" d="M 203.015625 180.402344 L 203.015625 213.648438 C 203.039062 215.753906 202.21875 217.78125 200.738281 219.277344 C 199.253906 220.773438 197.238281 221.609375 195.132812 221.601562 C 190.75 221.601562 186.492188 218.042969 186.492188 213.648438 L 186.492188 180.402344 C 186.492188 176.066406 190.734375 172.507812 195.132812 172.507812 C 199.480469 172.527344 203 176.050781 203.015625 180.402344 Z M 206.113281 225.464844 C 206.109375 227.71875 207 229.882812 208.59375 231.476562 C 210.183594 233.070312 212.347656 233.960938 214.597656 233.957031 L 220.300781 233.957031 L 220.386719 251.496094 C 220.386719 262.085938 236.214844 262.003906 236.214844 251.496094 L 236.214844 233.960938 L 246.875 233.960938 L 246.875 251.5 C 246.875 262.035156 262.796875 262.0625 262.796875 251.5 L 262.796875 233.960938 L 268.585938 233.960938 C 273.257812 233.949219 277.03125 230.144531 277.015625 225.46875 L 277.015625 173.957031 L 206.113281 173.957031 Z M 277.207031 171.1875 L 205.789062 171.1875 C 205.789062 158.890625 213.128906 148.226562 224.023438 142.660156 L 218.5625 132.527344 C 217.761719 131.117188 219.796875 130.25 220.484375 131.4375 L 226.046875 141.65625 C 235.941406 137.324219 247.195312 137.324219 257.09375 141.65625 L 262.625 131.46875 C 263.34375 130.234375 265.351562 131.15625 264.542969 132.558594 L 259.085938 142.660156 C 269.871094 148.226562 277.207031 158.90625 277.207031 171.1875 Z M 228.269531 155.246094 C 228.269531 153.582031 226.921875 152.234375 225.257812 152.234375 C 223.644531 152.296875 222.367188 153.625 222.367188 155.246094 C 222.367188 156.863281 223.644531 158.195312 225.257812 158.257812 C 226.917969 158.257812 228.261719 156.917969 228.269531 155.257812 Z M 260.78125 155.246094 C 260.753906 153.609375 259.410156 152.300781 257.769531 152.324219 C 256.132812 152.347656 254.828125 153.695312 254.851562 155.335938 C 254.875 156.976562 256.21875 158.285156 257.855469 158.261719 C 259.484375 158.226562 260.785156 156.890625 260.78125 155.257812 Z M 287.957031 172.5 C 285.863281 172.492188 283.855469 173.324219 282.375 174.804688 C 280.894531 176.285156 280.066406 178.296875 280.074219 180.394531 L 280.074219 213.640625 C 280.054688 218.015625 283.585938 221.578125 287.957031 221.59375 C 292.371094 221.59375 296.597656 218.035156 296.597656 213.640625 L 296.597656 180.394531 C 296.585938 175.984375 292.339844 172.507812 287.957031 172.507812 Z M 287.957031 172.5 "/>
<path style=" stroke:none;fill-rule:nonzero;fill:rgb(32.54902%,32.941176%,38.039216%);fill-opacity:1;" d="M 206.519531 259.359375 L 236.085938 259.359375 L 236.085938 260.722656 L 206.519531 260.722656 Z M 206.519531 259.359375 "/>
<path style=" stroke:none;fill-rule:nonzero;fill:rgb(32.54902%,32.941176%,38.039216%);fill-opacity:1;" d="M 247.003906 259.359375 L 266.5625 259.359375 L 266.5625 260.722656 L 247.003906 260.722656 Z M 247.003906 259.359375 "/>
<path style=" stroke:none;fill-rule:nonzero;fill:rgb(32.54902%,32.941176%,38.039216%);fill-opacity:1;" d="M 180.589844 259.359375 L 200.152344 259.359375 L 200.152344 260.722656 L 180.589844 260.722656 Z M 180.589844 259.359375 "/>
<path style=" stroke:none;fill-rule:nonzero;fill:rgb(32.54902%,32.941176%,38.039216%);fill-opacity:1;" d="M 277.933594 259.359375 L 297.492188 259.359375 L 297.492188 260.722656 L 277.933594 260.722656 Z M 277.933594 259.359375 "/>
</g>
</svg>
