<?xml version="1.0" encoding="UTF-8"?>
<svg id = "cat" xmlns="http://www.w3.org/2000/svg" xmlns:xlink="http://www.w3.org/1999/xlink" width="500px" height="258px" viewBox="0 0 499 258" version="1.1">
<defs>
<filter id="alpha" filterUnits="objectBoundingBox" x="0%" y="0%" width="100%" height="100%">
  <feColorMatrix type="matrix" in="SourceGraphic" values="0 0 0 0 1 0 0 0 0 1 0 0 0 0 1 0 0 0 1 0"/>
</filter>
<mask id="mask0">
  <g filter="url(#alpha)">
<rect x="0" y="0" width="499" height="258" style="fill:rgb(0%,0%,0%);fill-opacity:0.2;stroke:none;"/>
  </g>
</mask>
<clipPath id="clip1">
  <rect x="0" y="0" width="500" height="258"/>
</clipPath>
<g id="surface5" clip-path="url(#clip1)">
<path style=" stroke:none;fill-rule:nonzero;fill:rgb(0%,0%,0%);fill-opacity:1;" d="M 399.996094 99.953125 C 388.308594 106.644531 373.917969 106.480469 362.386719 99.527344 L 364.285156 92.757812 L 397.949219 93.332031 Z M 399.996094 99.953125 "/>
</g>
<mask id="mask1">
  <g filter="url(#alpha)">
<rect x="0" y="0" width="499" height="258" style="fill:rgb(0%,0%,0%);fill-opacity:0.2;stroke:none;"/>
  </g>
</mask>
<clipPath id="clip2">
  <rect x="0" y="0" width="500" height="258"/>
</clipPath>
<g id="surface8" clip-path="url(#clip2)">
<path style=" stroke:none;fill-rule:nonzero;fill:rgb(0%,0%,0%);fill-opacity:1;" d="M 113.527344 88.5 C 125.214844 95.191406 139.601562 95.027344 151.136719 88.070312 L 149.238281 81.304688 L 115.570312 81.878906 Z M 113.527344 88.5 "/>
</g>
</defs>
<g id="surface1">
<path style=" stroke:none;fill-rule:nonzero;fill:rgb(90.196078%,90.196078%,90.196078%);fill-opacity:1;" d="M 499.042969 223.808594 C 499.042969 219.945312 387.328125 216.816406 249.519531 216.816406 C 111.714844 216.816406 0 219.945312 0 223.808594 C 0 227.667969 111.714844 230.796875 249.519531 230.796875 C 387.328125 230.796875 499.042969 227.667969 499.042969 223.808594 Z M 499.042969 223.808594 "/>
<path style=" stroke:none;fill-rule:nonzero;fill:rgb(24.705882%,23.921569%,33.72549%);fill-opacity:1;" d="M 382.5 148.074219 C 382.183594 148.078125 381.867188 148.082031 381.550781 148.082031 C 381.230469 148.082031 380.914062 148.078125 380.597656 148.074219 C 363.894531 147.691406 351.789062 137.242188 354.871094 126.277344 L 362.386719 99.527344 L 364.285156 92.757812 L 397.949219 93.332031 L 399.996094 99.953125 L 408.050781 126.015625 C 411.457031 137.042969 399.351562 147.691406 382.5 148.074219 Z M 382.5 148.074219 "/>
<use xlink:href="#surface5" mask="url(#mask0)"/>
<path style=" stroke:none;fill-rule:nonzero;fill:rgb(24.705882%,23.921569%,33.72549%);fill-opacity:1;" d="M 398.574219 127.164062 C 400.027344 121.738281 404.808594 113.90625 418.210938 104.464844 C 441.589844 88 427.644531 75.65625 427.039062 75.136719 C 425.773438 74.050781 425.960938 72.832031 427.476562 72.417969 C 429.257812 72.0625 431.105469 72.492188 432.546875 73.597656 C 433.304688 74.226562 450.765625 89.160156 424.386719 107.738281 C 400.644531 124.460938 405.695312 135.375 405.75 135.480469 C 406.386719 136.648438 405.367188 137.582031 403.472656 137.570312 C 401.574219 137.554688 399.519531 136.601562 398.882812 135.433594 C 398.746094 135.1875 397.21875 132.214844 398.574219 127.164062 Z M 398.574219 127.164062 "/>
<path style=" stroke:none;fill-rule:nonzero;fill:rgb(24.705882%,23.921569%,33.72549%);fill-opacity:1;" d="M 366.011719 151.972656 C 363.867188 151.972656 362.125 150.230469 362.125 148.082031 L 362.125 131.226562 C 362.125 129.078125 363.867188 127.335938 366.011719 127.335938 C 368.15625 127.335938 369.894531 129.078125 369.894531 131.226562 L 369.894531 148.082031 C 369.894531 150.230469 368.15625 151.972656 366.011719 151.972656 Z M 366.011719 151.972656 "/>
<path style=" stroke:none;fill-rule:nonzero;fill:rgb(24.705882%,23.921569%,33.72549%);fill-opacity:1;" d="M 369.417969 111.953125 C 368.519531 113.90625 366.214844 114.761719 364.265625 113.863281 L 348.972656 106.816406 C 347.027344 105.917969 346.175781 103.609375 347.070312 101.660156 C 347.96875 99.707031 350.273438 98.855469 352.21875 99.75 L 367.511719 106.792969 C 369.460938 107.691406 370.3125 110.003906 369.417969 111.953125 Z M 369.417969 111.953125 "/>
<path style=" stroke:none;fill-rule:nonzero;fill:rgb(24.705882%,23.921569%,33.72549%);fill-opacity:1;" d="M 393.679688 111.953125 C 394.578125 113.90625 396.882812 114.761719 398.832031 113.863281 L 414.125 106.816406 C 416.074219 105.917969 416.925781 103.609375 416.03125 101.65625 C 415.132812 99.707031 412.828125 98.851562 410.878906 99.75 L 395.585938 106.792969 C 393.636719 107.691406 392.785156 110.003906 393.679688 111.953125 Z M 393.679688 111.953125 "/>
<path style=" stroke:none;fill-rule:nonzero;fill:rgb(24.705882%,23.921569%,33.72549%);fill-opacity:1;" d="M 397.085938 151.972656 C 399.230469 151.972656 400.972656 150.230469 400.972656 148.082031 L 400.972656 131.226562 C 400.972656 129.078125 399.230469 127.335938 397.085938 127.335938 C 394.941406 127.335938 393.203125 129.078125 393.203125 131.226562 L 393.203125 148.082031 C 393.203125 150.230469 394.941406 151.972656 397.085938 151.972656 Z M 397.085938 151.972656 "/>
<path style=" stroke:none;fill-rule:nonzero;fill:rgb(24.705882%,23.921569%,33.72549%);fill-opacity:1;" d="M 413.320312 42.84375 C 414 41.988281 414.28125 40.882812 414.089844 39.804688 L 409.863281 14.898438 C 409.628906 13.527344 408.6875 12.386719 407.386719 11.90625 C 406.085938 11.421875 404.628906 11.671875 403.5625 12.554688 L 393.847656 20.617188 L 387.996094 25.472656 C 384.09375 24.777344 380.105469 24.71875 376.183594 25.292969 L 370.542969 20.617188 L 360.832031 12.554688 C 359.765625 11.671875 358.304688 11.421875 357.003906 11.90625 C 355.707031 12.386719 354.761719 13.527344 354.53125 14.898438 L 352.414062 27.351562 L 350.300781 39.804688 C 350.1875 40.460938 350.246094 41.132812 350.472656 41.757812 C 340.441406 57.15625 343.160156 77.582031 356.867188 89.8125 C 370.574219 102.039062 391.148438 102.394531 405.269531 90.648438 C 419.390625 78.902344 422.8125 58.582031 413.320312 42.84375 Z M 413.320312 42.84375 "/>
<path style=" stroke:none;fill-rule:nonzero;fill:rgb(90.196078%,90.196078%,90.196078%);fill-opacity:1;" d="M 359.859375 17.660156 C 359.628906 17.660156 359.398438 17.703125 359.183594 17.78125 C 358.539062 18.019531 358.066406 18.585938 357.957031 19.261719 L 355.394531 34.367188 C 355.277344 35.042969 355.53125 35.730469 356.0625 36.171875 C 356.589844 36.609375 357.3125 36.730469 357.957031 36.492188 L 372.296875 31.164062 C 372.941406 30.925781 373.410156 30.359375 373.523438 29.683594 C 373.640625 29.003906 373.386719 28.316406 372.855469 27.878906 L 361.078125 18.105469 C 360.734375 17.816406 360.304688 17.660156 359.859375 17.660156 Z M 359.859375 17.660156 "/>
<path style=" stroke:none;fill-rule:nonzero;fill:rgb(90.196078%,90.196078%,90.196078%);fill-opacity:1;" d="M 404.535156 17.660156 C 404.089844 17.660156 403.65625 17.816406 403.316406 18.105469 L 391.535156 27.878906 C 391.007812 28.316406 390.753906 29.003906 390.867188 29.683594 C 390.984375 30.359375 391.449219 30.925781 392.09375 31.164062 L 406.4375 36.492188 C 407.082031 36.730469 407.800781 36.609375 408.332031 36.171875 C 408.859375 35.730469 409.113281 35.042969 409 34.367188 L 406.433594 19.261719 C 406.324219 18.585938 405.855469 18.019531 405.210938 17.78125 C 404.992188 17.703125 404.765625 17.660156 404.535156 17.660156 Z M 404.535156 17.660156 "/>
<path style=" stroke:none;fill-rule:nonzero;fill:rgb(90.196078%,90.196078%,90.196078%);fill-opacity:1;" d="M 386.726562 67.257812 C 386.726562 70.121094 384.410156 72.445312 381.550781 72.445312 C 378.6875 72.445312 376.371094 70.121094 376.371094 67.257812 C 376.371094 64.394531 378.6875 62.070312 381.550781 62.070312 C 384.410156 62.070312 386.726562 64.394531 386.726562 67.257812 Z M 386.726562 67.257812 "/>
<path style=" stroke:none;fill-rule:nonzero;fill:rgb(24.705882%,23.921569%,33.72549%);fill-opacity:1;" d="M 385 64.664062 C 385 63.949219 383.457031 63.367188 381.550781 63.367188 C 379.640625 63.367188 378.097656 63.949219 378.097656 64.664062 C 378.097656 65.382812 379.640625 65.960938 381.550781 65.960938 C 383.457031 65.960938 385 65.382812 385 64.664062 Z M 385 64.664062 "/>
<path style=" stroke:none;fill-rule:nonzero;fill:rgb(100%,39.607843%,51.764706%);fill-opacity:1;" d="M 378.960938 70.285156 L 383.707031 70.285156 L 383.707031 76.117188 C 383.707031 77.433594 382.644531 78.496094 381.332031 78.496094 C 380.023438 78.496094 378.960938 77.433594 378.960938 76.117188 Z M 378.960938 70.285156 "/>
<path style=" stroke:none;fill-rule:nonzero;fill:rgb(24.705882%,23.921569%,33.72549%);fill-opacity:1;" d="M 381.835938 11.457031 C 381.589844 11.972656 381.347656 12.496094 381.117188 13.027344 C 378.441406 19.285156 377.539062 26.15625 378.507812 32.894531 C 378.996094 32.1875 379.503906 31.453125 380.023438 30.710938 C 378.910156 24.242188 379.539062 17.597656 381.835938 11.457031 Z M 381.835938 11.457031 "/>
<path style=" stroke:none;fill-rule:nonzero;fill:rgb(24.705882%,23.921569%,33.72549%);fill-opacity:1;" d="M 385.722656 16.210938 C 385.472656 16.726562 385.230469 17.25 385.003906 17.78125 C 382.324219 24.039062 381.421875 30.914062 382.394531 37.648438 C 382.878906 36.941406 383.390625 36.207031 383.910156 35.464844 C 382.796875 29 383.421875 22.351562 385.722656 16.210938 Z M 385.722656 16.210938 "/>
<path style=" stroke:none;fill-rule:nonzero;fill:rgb(99.607843%,46.666667%,60.784314%);fill-opacity:1;" d="M 397.699219 109.546875 L 397.148438 102.578125 L 396.601562 95.609375 C 396.542969 94.839844 396.078125 94.167969 395.386719 93.835938 C 394.695312 93.503906 393.878906 93.570312 393.246094 94.003906 L 387.492188 97.964844 L 383.292969 100.855469 C 382.75 100.21875 381.953125 99.851562 381.117188 99.851562 C 380.28125 99.851562 379.484375 100.21875 378.941406 100.855469 L 374.742188 97.964844 L 368.988281 94.003906 C 368.355469 93.570312 367.539062 93.503906 366.847656 93.835938 C 366.15625 94.167969 365.691406 94.839844 365.632812 95.609375 L 364.539062 109.546875 C 364.476562 110.3125 364.828125 111.050781 365.460938 111.484375 C 366.09375 111.921875 366.910156 111.984375 367.601562 111.65625 L 373.902344 108.644531 L 379.078125 106.171875 C 379.617188 106.71875 380.351562 107.023438 381.117188 107.023438 C 381.882812 107.023438 382.617188 106.71875 383.15625 106.171875 L 388.332031 108.644531 L 394.632812 111.65625 C 395.324219 111.984375 396.140625 111.921875 396.773438 111.484375 C 397.40625 111.050781 397.757812 110.3125 397.699219 109.546875 Z M 397.699219 109.546875 "/>
<path style=" stroke:none;fill-rule:nonzero;fill:rgb(90.196078%,90.196078%,90.196078%);fill-opacity:1;" d="M 375.9375 61.640625 C 375.9375 62.355469 375.359375 62.9375 374.644531 62.9375 C 373.929688 62.9375 373.347656 62.355469 373.347656 61.640625 C 373.347656 60.921875 373.929688 60.34375 374.644531 60.34375 C 375.359375 60.34375 375.9375 60.921875 375.9375 61.640625 Z M 375.9375 61.640625 "/>
<path style=" stroke:none;fill-rule:nonzero;fill:rgb(90.196078%,90.196078%,90.196078%);fill-opacity:1;" d="M 389.75 61.640625 C 389.75 62.355469 389.167969 62.9375 388.453125 62.9375 C 387.738281 62.9375 387.160156 62.355469 387.160156 61.640625 C 387.160156 60.921875 387.738281 60.34375 388.453125 60.34375 C 389.167969 60.34375 389.75 60.921875 389.75 61.640625 Z M 389.75 61.640625 "/>
<path style=" stroke:none;fill-rule:nonzero;fill:rgb(24.705882%,23.921569%,33.72549%);fill-opacity:1;" d="M 131.023438 136.617188 C 131.335938 136.621094 131.652344 136.625 131.972656 136.625 C 132.292969 136.625 132.605469 136.621094 132.921875 136.617188 C 149.625 136.238281 161.730469 125.785156 158.648438 114.820312 L 151.136719 88.070312 L 149.238281 81.304688 L 115.570312 81.878906 L 113.527344 88.5 L 105.472656 114.5625 C 102.0625 125.585938 114.167969 136.238281 131.023438 136.617188 Z M 131.023438 136.617188 "/>
<use xlink:href="#surface8" mask="url(#mask1)"/>
<path style=" stroke:none;fill-rule:nonzero;fill:rgb(24.705882%,23.921569%,33.72549%);fill-opacity:1;" d="M 110.859375 112.539062 C 107.222656 108.257812 99.558594 103.226562 83.410156 100.4375 C 55.246094 95.574219 62.574219 78.4375 62.898438 77.710938 C 63.582031 76.1875 62.890625 75.167969 61.34375 75.441406 C 59.582031 75.882812 58.09375 77.0625 57.265625 78.683594 C 56.847656 79.574219 47.445312 100.554688 79.226562 106.039062 C 107.828125 110.980469 107.929688 123.011719 107.925781 123.128906 C 107.847656 124.457031 109.167969 124.863281 110.878906 124.039062 C 112.585938 123.214844 114.035156 121.472656 114.113281 120.144531 C 114.128906 119.863281 114.242188 116.523438 110.859375 112.539062 Z M 110.859375 112.539062 "/>
<path style=" stroke:none;fill-rule:nonzero;fill:rgb(24.705882%,23.921569%,33.72549%);fill-opacity:1;" d="M 147.511719 140.515625 C 149.65625 140.515625 151.394531 138.773438 151.394531 136.625 L 151.394531 119.769531 C 151.390625 117.625 149.652344 115.882812 147.511719 115.882812 C 145.367188 115.882812 143.628906 117.625 143.625 119.769531 L 143.625 136.625 C 143.625 138.773438 145.363281 140.515625 147.511719 140.515625 Z M 147.511719 140.515625 "/>
<path style=" stroke:none;fill-rule:nonzero;fill:rgb(24.705882%,23.921569%,33.72549%);fill-opacity:1;" d="M 144.105469 100.5 C 145 102.449219 147.308594 103.304688 149.257812 102.40625 L 164.546875 95.363281 C 165.808594 94.78125 166.667969 93.570312 166.796875 92.1875 C 166.925781 90.800781 166.304688 89.453125 165.171875 88.648438 C 164.039062 87.847656 162.5625 87.710938 161.300781 88.292969 L 146.007812 95.339844 C 144.058594 96.238281 143.207031 98.546875 144.105469 100.5 Z M 144.105469 100.5 "/>
<path style=" stroke:none;fill-rule:nonzero;fill:rgb(24.705882%,23.921569%,33.72549%);fill-opacity:1;" d="M 119.839844 100.5 C 118.945312 102.449219 116.636719 103.304688 114.6875 102.40625 L 99.394531 95.363281 C 98.132812 94.78125 97.277344 93.570312 97.148438 92.1875 C 97.019531 90.800781 97.640625 89.453125 98.773438 88.648438 C 99.90625 87.847656 101.382812 87.710938 102.644531 88.292969 L 117.933594 95.339844 C 119.882812 96.238281 120.738281 98.546875 119.839844 100.5 Z M 119.839844 100.5 "/>
<path style=" stroke:none;fill-rule:nonzero;fill:rgb(24.705882%,23.921569%,33.72549%);fill-opacity:1;" d="M 116.433594 140.515625 C 114.289062 140.515625 112.550781 138.773438 112.550781 136.625 L 112.550781 119.769531 C 112.554688 117.625 114.292969 115.882812 116.433594 115.882812 C 118.578125 115.882812 120.316406 117.625 120.320312 119.769531 L 120.320312 136.625 C 120.320312 138.773438 118.578125 140.515625 116.433594 140.515625 Z M 116.433594 140.515625 "/>
<path style=" stroke:none;fill-rule:nonzero;fill:rgb(24.705882%,23.921569%,33.72549%);fill-opacity:1;" d="M 163.050781 30.300781 C 163.273438 29.675781 163.332031 29.003906 163.21875 28.351562 L 161.105469 15.894531 L 158.992188 3.441406 C 158.757812 2.074219 157.816406 0.933594 156.515625 0.449219 C 155.214844 -0.0351562 153.757812 0.214844 152.691406 1.101562 L 142.976562 9.160156 L 137.339844 13.839844 C 133.417969 13.261719 129.429688 13.324219 125.527344 14.015625 L 119.671875 9.160156 L 109.960938 1.101562 C 108.890625 0.214844 107.433594 -0.0351562 106.132812 0.449219 C 104.835938 0.933594 103.890625 2.074219 103.660156 3.441406 L 101.542969 15.894531 L 99.429688 28.351562 C 99.242188 29.425781 99.523438 30.535156 100.203125 31.390625 C 90.695312 47.128906 94.113281 67.460938 108.238281 79.21875 C 122.367188 90.972656 142.953125 90.617188 156.667969 78.378906 C 170.378906 66.144531 173.09375 45.703125 163.050781 30.300781 Z M 163.050781 30.300781 "/>
<path style=" stroke:none;fill-rule:nonzero;fill:rgb(90.196078%,90.196078%,90.196078%);fill-opacity:1;" d="M 152.445312 6.648438 L 140.664062 16.425781 C 140.136719 16.863281 139.882812 17.550781 139.996094 18.226562 C 140.113281 18.90625 140.578125 19.46875 141.222656 19.710938 L 155.566406 25.039062 C 156.210938 25.277344 156.929688 25.152344 157.460938 24.714844 C 157.988281 24.277344 158.242188 23.589844 158.128906 22.910156 L 155.5625 7.808594 C 155.453125 7.128906 154.984375 6.5625 154.339844 6.328125 C 154.121094 6.246094 153.894531 6.203125 153.664062 6.203125 C 153.21875 6.207031 152.785156 6.363281 152.445312 6.648438 Z M 152.445312 6.648438 "/>
<path style=" stroke:none;fill-rule:nonzero;fill:rgb(90.196078%,90.196078%,90.196078%);fill-opacity:1;" d="M 108.3125 6.328125 C 107.664062 6.5625 107.195312 7.128906 107.085938 7.808594 L 104.523438 22.910156 C 104.40625 23.589844 104.660156 24.277344 105.191406 24.714844 C 105.71875 25.152344 106.441406 25.277344 107.085938 25.039062 L 121.425781 19.710938 C 122.070312 19.46875 122.539062 18.90625 122.652344 18.226562 C 122.769531 17.550781 122.511719 16.863281 121.984375 16.425781 L 110.207031 6.648438 C 109.863281 6.363281 109.433594 6.207031 108.988281 6.203125 C 108.757812 6.203125 108.527344 6.246094 108.3125 6.328125 Z M 108.3125 6.328125 "/>
<path style=" stroke:none;fill-rule:nonzero;fill:rgb(90.196078%,90.196078%,90.196078%);fill-opacity:1;" d="M 137.152344 55.804688 C 137.152344 58.667969 134.832031 60.988281 131.972656 60.988281 C 129.113281 60.988281 126.792969 58.667969 126.792969 55.804688 C 126.792969 52.9375 129.113281 50.617188 131.972656 50.617188 C 134.832031 50.617188 137.152344 52.9375 137.152344 55.804688 Z M 137.152344 55.804688 "/>
<path style=" stroke:none;fill-rule:nonzero;fill:rgb(24.705882%,23.921569%,33.72549%);fill-opacity:1;" d="M 135.425781 53.210938 C 135.425781 52.492188 133.878906 51.914062 131.972656 51.914062 C 130.066406 51.914062 128.519531 52.492188 128.519531 53.210938 C 128.519531 53.925781 130.066406 54.507812 131.972656 54.507812 C 133.878906 54.507812 135.425781 53.925781 135.425781 53.210938 Z M 135.425781 53.210938 "/>
<path style=" stroke:none;fill-rule:nonzero;fill:rgb(100%,39.607843%,51.764706%);fill-opacity:1;" d="M 132.1875 67.039062 C 130.878906 67.039062 129.8125 65.976562 129.8125 64.664062 L 129.8125 58.828125 L 134.5625 58.828125 L 134.5625 64.664062 C 134.5625 65.976562 133.5 67.039062 132.1875 67.039062 Z M 132.1875 67.039062 "/>
<path style=" stroke:none;fill-rule:nonzero;fill:rgb(24.705882%,23.921569%,33.72549%);fill-opacity:1;" d="M 131.683594 0 C 131.933594 0.515625 132.175781 1.039062 132.402344 1.574219 C 135.082031 7.828125 135.984375 14.703125 135.011719 21.4375 C 134.527344 20.734375 134.015625 19.996094 133.496094 19.253906 C 134.609375 12.789062 133.984375 6.144531 131.683594 0 Z M 131.683594 0 "/>
<path style=" stroke:none;fill-rule:nonzero;fill:rgb(24.705882%,23.921569%,33.72549%);fill-opacity:1;" d="M 127.800781 4.753906 C 128.046875 5.269531 128.289062 5.792969 128.519531 6.328125 C 131.195312 12.582031 132.097656 19.457031 131.128906 26.195312 C 130.640625 25.488281 130.132812 24.753906 129.613281 24.007812 C 130.726562 17.542969 130.097656 10.898438 127.800781 4.753906 Z M 127.800781 4.753906 "/>
<path style=" stroke:none;fill-rule:nonzero;fill:rgb(99.607843%,46.666667%,60.784314%);fill-opacity:1;" d="M 115.824219 22.453125 L 116.917969 8.515625 C 116.976562 7.75 117.441406 7.074219 118.132812 6.746094 C 118.828125 6.414062 119.644531 6.476562 120.273438 6.914062 L 126.027344 10.871094 L 130.230469 13.761719 C 130.773438 13.125 131.566406 12.757812 132.402344 12.757812 C 133.242188 12.757812 134.035156 13.125 134.578125 13.761719 L 138.78125 10.871094 L 144.53125 6.914062 C 145.164062 6.476562 145.980469 6.414062 146.671875 6.746094 C 147.367188 7.074219 147.828125 7.75 147.890625 8.515625 L 148.984375 22.453125 C 149.042969 23.21875 148.691406 23.960938 148.058594 24.394531 C 147.425781 24.828125 146.613281 24.894531 145.917969 24.5625 L 139.617188 21.554688 L 134.441406 19.082031 C 133.902344 19.625 133.167969 19.933594 132.402344 19.933594 C 131.636719 19.933594 130.902344 19.625 130.367188 19.082031 L 125.1875 21.554688 L 118.890625 24.5625 C 118.195312 24.894531 117.378906 24.828125 116.75 24.394531 C 116.117188 23.960938 115.761719 23.21875 115.824219 22.453125 Z M 115.824219 22.453125 "/>
<path style=" stroke:none;fill-rule:nonzero;fill:rgb(90.196078%,90.196078%,90.196078%);fill-opacity:1;" d="M 137.582031 50.183594 C 137.582031 50.902344 138.164062 50.183594 138.878906 50.183594 C 139.59375 50.183594 140.171875 50.902344 140.171875 50.183594 C 140.171875 49.46875 139.59375 48.890625 138.878906 48.890625 C 138.164062 48.890625 137.585938 49.46875 137.582031 50.183594 Z M 137.582031 50.183594 "/>
<path style=" stroke:none;fill-rule:nonzero;fill:rgb(90.196078%,90.196078%,90.196078%);fill-opacity:1;" d="M 126.363281 50.183594 C 126.363281 50.902344 125.78125 50.183594 125.066406 50.183594 C 124.351562 50.183594 123.773438 50.902344 123.773438 50.183594 C 123.773438 49.46875 124.351562 48.890625 125.066406 48.890625 C 125.78125 48.890625 126.359375 49.46875 126.363281 50.183594 Z M 126.363281 50.183594 "/>
<path style=" stroke:none;fill-rule:nonzero;fill:rgb(24.705882%,23.921569%,33.72549%);fill-opacity:1;" d="M 270.015625 148.082031 L 270.015625 139.839844 L 228.863281 139.839844 L 228.863281 222.777344 L 270.015625 222.777344 L 270.015625 214.535156 L 237.09375 214.535156 L 237.09375 148.082031 Z M 270.015625 148.082031 "/>
<path style=" stroke:none;fill-rule:nonzero;fill:rgb(99.607843%,46.666667%,60.784314%);fill-opacity:1;" d="M 290.078125 139.84375 L 290.078125 222.773438 L 331.230469 222.773438 L 331.230469 139.84375 Z M 323 214.535156 L 298.308594 214.535156 L 298.308594 148.082031 L 323 148.082031 Z M 323 214.535156 "/>
<path style=" stroke:none;fill-rule:nonzero;fill:rgb(99.607843%,46.666667%,60.784314%);fill-opacity:1;" d="M 175.882812 214.535156 L 175.882812 140.355469 L 167.652344 140.355469 L 167.652344 222.777344 L 208.800781 222.777344 L 208.800781 214.535156 Z M 175.882812 214.535156 "/>
<path style=" stroke:none;fill-rule:nonzero;fill:rgb(24.705882%,23.921569%,33.72549%);fill-opacity:1;" d="M 149.132812 148.082031 L 149.132812 139.839844 L 107.980469 139.839844 L 107.980469 222.777344 L 149.132812 222.777344 L 149.132812 214.535156 L 116.210938 214.535156 L 116.210938 185.171875 L 149.132812 185.171875 L 149.132812 176.929688 L 116.210938 176.929688 L 116.210938 148.082031 Z M 149.132812 148.082031 "/>
<path style=" stroke:none;fill-rule:nonzero;fill:rgb(99.607843%,46.666667%,60.784314%);fill-opacity:1;" d="M 471.144531 148.082031 L 471.144531 139.839844 L 429.992188 139.839844 L 429.992188 222.777344 L 471.144531 222.777344 L 471.144531 214.535156 L 438.222656 214.535156 L 438.222656 185.171875 L 471.144531 185.171875 L 471.144531 176.929688 L 438.222656 176.929688 L 438.222656 148.082031 Z M 471.144531 148.082031 "/>
<path style=" stroke:none;fill-rule:nonzero;fill:rgb(24.705882%,23.921569%,33.72549%);fill-opacity:1;" d="M 80.203125 140.355469 L 80.203125 208.472656 L 58.503906 186.742188 L 58.453125 186.792969 L 58.410156 186.746094 L 36.222656 208.964844 L 36.222656 140.101562 L 27.992188 140.101562 L 27.992188 222.519531 L 36.222656 222.519531 L 36.222656 220.617188 L 58.457031 198.351562 L 80.203125 220.128906 L 80.203125 222.777344 L 88.433594 222.777344 L 88.433594 140.355469 Z M 80.203125 140.355469 "/>
<path style=" stroke:none;fill-rule:nonzero;fill:rgb(24.705882%,23.921569%,33.72549%);fill-opacity:1;" d="M 402.730469 140.355469 L 402.730469 142.253906 L 380.496094 164.519531 L 358.75 142.746094 L 358.75 140.101562 L 350.519531 140.101562 L 350.519531 222.519531 L 358.75 222.519531 L 358.75 154.398438 L 380.449219 176.132812 L 380.5 176.082031 L 380.542969 176.125 L 402.730469 153.910156 L 402.730469 222.777344 L 410.960938 222.777344 L 410.960938 140.355469 Z M 402.730469 140.355469 "/>
<path style=" stroke:none;fill-rule:nonzero;fill:rgb(99.607843%,46.666667%,60.784314%);fill-opacity:1;" d="M 193.132812 84.527344 C 193.132812 87.320312 190.871094 89.585938 188.078125 89.585938 C 185.289062 89.585938 183.027344 87.320312 183.027344 84.527344 C 183.027344 81.734375 185.289062 79.46875 188.078125 79.46875 C 190.871094 79.46875 193.132812 81.734375 193.132812 84.527344 Z M 193.132812 84.527344 "/>
<path style=" stroke:none;fill-rule:nonzero;fill:rgb(99.607843%,46.666667%,60.784314%);fill-opacity:1;" d="M 68.523438 140.734375 C 68.523438 143.53125 66.261719 145.796875 63.46875 145.796875 C 60.679688 145.796875 58.417969 143.53125 58.417969 140.734375 C 58.417969 137.941406 60.679688 135.675781 63.46875 135.675781 C 66.261719 135.675781 68.523438 137.941406 68.523438 140.734375 Z M 68.523438 140.734375 "/>
<path style=" stroke:none;fill-rule:nonzero;fill:rgb(99.607843%,46.666667%,60.784314%);fill-opacity:1;" d="M 168.433594 253.15625 C 168.433594 255.949219 166.171875 258.214844 163.382812 258.214844 C 160.59375 258.214844 158.332031 255.949219 158.332031 253.15625 C 158.332031 250.359375 160.59375 248.09375 163.382812 248.09375 C 166.171875 248.09375 168.433594 250.359375 168.433594 253.15625 Z M 168.433594 253.15625 "/>
<path style=" stroke:none;fill-rule:nonzero;fill:rgb(99.607843%,46.666667%,60.784314%);fill-opacity:1;" d="M 295.289062 99.703125 C 295.289062 102.496094 293.027344 104.761719 290.238281 104.761719 C 287.445312 104.761719 285.183594 102.496094 285.183594 99.703125 C 285.183594 96.910156 287.445312 94.644531 290.238281 94.644531 C 293.027344 94.644531 295.289062 96.910156 295.289062 99.703125 Z M 295.289062 99.703125 "/>
<path style=" stroke:none;fill-rule:nonzero;fill:rgb(99.607843%,46.666667%,60.784314%);fill-opacity:1;" d="M 444.035156 248.65625 C 444.035156 251.453125 441.773438 253.714844 438.984375 253.714844 C 436.191406 253.714844 433.929688 251.453125 433.929688 248.65625 C 433.929688 245.863281 436.191406 243.597656 438.984375 243.597656 C 441.773438 243.597656 444.035156 245.863281 444.035156 248.65625 Z M 444.035156 248.65625 "/>
<path style=" stroke:none;fill-rule:nonzero;fill:rgb(99.607843%,46.666667%,60.784314%);fill-opacity:1;" d="M 449.085938 116.003906 C 449.085938 118.796875 446.824219 121.0625 444.035156 121.0625 C 441.246094 121.0625 438.984375 118.796875 438.984375 116.003906 C 438.984375 113.210938 441.246094 110.945312 444.035156 110.945312 C 446.824219 110.945312 449.085938 113.210938 449.085938 116.003906 Z M 449.085938 116.003906 "/>
<path style=" stroke:none;fill-rule:nonzero;fill:rgb(99.607843%,46.666667%,60.784314%);fill-opacity:1;" d="M 385.097656 207.0625 C 385.097656 209.855469 382.835938 212.121094 380.046875 212.121094 C 377.253906 212.121094 374.992188 209.855469 374.992188 207.0625 C 374.992188 204.269531 377.253906 202.003906 380.046875 202.003906 C 382.835938 202.003906 385.097656 204.269531 385.097656 207.0625 Z M 385.097656 207.0625 "/>
</g>
</svg>
